# File created by Blade
# Date/Time:  Thu Jan 22 16:25:48 2015
# Frame Rate: 120.000 fps
#------------------------------------------------------
:FULLY-SPECIFIED
:DEGREES
639
root 3.148509 39.974027 8.646692 58.298148 12.955082 48.561738
RightUpLeg -31.247280 -27.404524 -38.021393
RightLeg -8.336609 -0.000000 0.000000
RightFoot -7.107290 -13.871727 27.549199
RightToeBase 23.428764 -0.000000 -0.000000
LeftUpLeg 9.264194 -19.090243 13.378326
LeftLeg 139.707313 -0.000000 -0.000000
LeftFoot 18.871023 14.142074 -28.116427
LeftToeBase 1.656892 -0.000000 -0.000000
Spine 17.477167 -4.862821 -7.620217
RightShoulder -14.021599 -4.186699 -49.524388
RightArm 57.312195 64.756668 30.090231
RightForeArm -0.977610 0.000000 11.642639
RightHand 7.239443 -0.000000 -10.505979
RightHandThumb1 -24.326973 -0.000000 -32.862282
LeftShoulder -32.255210 35.803209 -14.896883
LeftArm 25.471670 -19.391208 -84.626589
LeftForeArm 44.003044 -0.000000 10.133930
LeftHand -15.582504 -0.000000 -18.929060
LeftHandThumb1 -26.253704 0.000000 33.147579
Head -14.495331 -20.204400 -17.387034
640
root 3.162022 39.977634 8.630797 58.304526 12.933798 48.618698
RightUpLeg -31.084421 -27.349318 -38.252701
RightLeg -8.425841 -0.000000 0.000000
RightFoot -7.089227 -13.754018 27.754562
RightToeBase 23.434172 -0.000000 -0.000000
LeftUpLeg 9.377854 -19.146617 13.328954
LeftLeg 139.628107 -0.000000 -0.000000
LeftFoot 18.812861 14.212840 -28.064433
LeftToeBase 1.571735 -0.000000 -0.000000
Spine 17.428821 -4.880673 -7.629474
RightShoulder -13.983510 -4.222115 -49.500107
RightArm 57.747553 64.856453 30.438717
RightForeArm -1.034833 0.000000 11.673482
RightHand 7.292043 -0.000000 -10.483350
RightHandThumb1 -24.326973 -0.000000 -32.862282
LeftShoulder -32.251234 35.853779 -14.869895
LeftArm 25.468843 -19.374849 -84.593127
LeftForeArm 44.036217 -0.000000 10.076906
LeftHand -15.646724 -0.000000 -18.840899
LeftHandThumb1 -26.253704 0.000000 33.147579
Head -14.473967 -20.175545 -17.410622
641
root 3.178601 39.981827 8.615081 58.308525 12.909306 48.668339
RightUpLeg -30.900384 -27.271795 -38.510195
RightLeg -8.534034 -0.000000 0.000000
RightFoot -7.043383 -13.635887 27.990113
RightToeBase 23.376028 -0.000000 -0.000000
LeftUpLeg 9.509884 -19.190955 13.272329
LeftLeg 139.553413 -0.000000 -0.000000
LeftFoot 18.756324 14.293692 -28.046537
LeftToeBase 1.582200 -0.000000 -0.000000
Spine 17.375423 -4.901653 -7.630252
RightShoulder -13.953519 -4.247996 -49.465415
RightArm 57.836924 64.853723 30.367417
RightForeArm -0.972526 -0.000000 11.681048
RightHand 7.173856 -0.000000 -10.596908
RightHandThumb1 -24.326973 -0.000000 -32.862282
LeftShoulder -32.254976 35.889701 -14.848817
LeftArm 25.447494 -19.374663 -84.555121
LeftForeArm 44.092476 0.000000 10.014456
LeftHand -15.608308 0.000000 -18.875210
LeftHandThumb1 -26.253704 0.000000 33.147579
Head -14.457141 -20.137280 -17.436559
642
root 3.196789 39.984371 8.598714 58.309161 12.888571 48.712725
RightUpLeg -30.714035 -27.206255 -38.752291
RightLeg -8.655252 -0.000000 0.000000
RightFoot -7.000448 -13.481684 28.427017
RightToeBase 23.246919 -0.000000 -0.000000
LeftUpLeg 9.651230 -19.222961 13.227430
LeftLeg 139.471277 -0.000000 -0.000000
LeftFoot 18.703712 14.364956 -28.045823
LeftToeBase 1.592612 -0.000000 -0.000000
Spine 17.319573 -4.916978 -7.621046
RightShoulder -13.929439 -4.285010 -49.434643
RightArm 57.954814 64.866687 30.338679
RightForeArm -0.941096 -0.000000 11.674993
RightHand 7.232162 0.000000 -10.655952
RightHandThumb1 -24.326973 -0.000000 -32.862282
LeftShoulder -32.257626 35.927057 -14.831072
LeftArm 25.423944 -19.421559 -84.536209
LeftForeArm 44.163797 -0.000000 9.966767
LeftHand -15.583727 0.000000 -19.004498
LeftHandThumb1 -26.253704 0.000000 33.147579
Head -14.441656 -20.106811 -17.449179
643
root 3.216959 39.986883 8.581878 58.325600 12.889990 48.770439
RightUpLeg -30.527898 -27.207702 -38.956809
RightLeg -8.782211 -0.000000 0.000000
RightFoot -6.983283 -13.314337 28.782537
RightToeBase 23.273861 -0.000000 -0.000000
LeftUpLeg 9.771687 -19.269052 13.189115
LeftLeg 139.397505 -0.000000 -0.000000
LeftFoot 18.696122 14.423296 -27.982528
LeftToeBase 1.595690 -0.000000 -0.000000
Spine 17.246036 -4.948349 -7.585633
RightShoulder -13.940500 -4.328403 -49.398637
RightArm 58.085814 64.837266 30.300094
RightForeArm -0.904467 -0.000000 11.696498
RightHand 7.195194 -0.000000 -10.690099
RightHandThumb1 -24.326973 -0.000000 -32.862282
LeftShoulder -32.237777 35.952410 -14.804144
LeftArm 25.356789 -19.448712 -84.499554
LeftForeArm 44.236611 -0.000000 9.936324
LeftHand -15.584705 -0.000000 -19.031457
LeftHandThumb1 -26.253704 0.000000 33.147579
Head -14.404013 -20.109052 -17.478363
